<?xml version="1.0" encoding="iso-8859-1"?>
<!-- Generator: Adobe Illustrator 19.0.0, SVG Export Plug-In . SVG Version: 6.00 Build 0)  -->
<svg fill="#3d3d3d" version="1.1" id="Capa_1" xmlns="http://www.w3.org/2000/svg" xmlns:xlink="http://www.w3.org/1999/xlink" x="0px" y="0px"
	 viewBox="0 0 334.8 334.8" style="enable-background:new 0 0 334.8 334.8;" xml:space="preserve">
<g>
	<g>
		<path d="M323.2,57.2c-4-4-8.8-6.8-14-8.8c0,0,0,0-0.4,0c-1.2-0.4-2.4-0.8-3.6-1.2c-0.4,0-0.4,0-0.8,0c-1.2-0.4-2.4-0.4-3.6-0.8
			c-0.4,0-0.8,0-0.8,0c-1.6,0-2.8-0.4-4.4-0.4h-256c-1.6,0-2.8,0-4.4,0.4c-0.4,0-0.8,0-0.8,0c-1.2,0-2.4,0.4-3.6,0.8
			c-0.4,0-0.4,0-0.8,0c-1.2,0.4-2.4,0.8-3.6,1.2c0,0,0,0-0.4,0c-5.2,2-10,5.2-14,8.8c-0.4,0-0.4,0.4-0.8,0.8
			c-0.4,0.4-0.8,0.8-1.2,1.2c-0.4,0.8-1.2,1.2-1.6,2C8,61.6,8,61.6,7.6,62c0,0,0,0.4-0.4,0.4C2.8,68.8,0,76.4,0,84.8v164.8
			c0,10.4,4,20,10.8,26.8c0,0.4,0.4,0.4,0.4,0.8c7.2,7.2,16.8,11.6,27.6,11.6h256.8c10.8,0,20.4-4.4,27.6-11.6s11.6-16.8,11.6-27.6
			V84.8C334.8,74,330.4,64.4,323.2,57.2z M35.6,66.4C36.8,66,38,66,39.2,66h256.4c1.2,0,2.4,0,3.6,0.4c1.2,0.4,2.4,0.8,3.6,1.2
			l-60.4,49.6L174.8,172l-0.4,0.4c-2,1.6-4.4,2.4-6.8,2.4c-2.4,0-4.8-0.8-6.8-2.4l-68-55.2L32,67.6C33.2,67.2,34.4,66.8,35.6,66.4z
			 M314.4,249.6c0,5.2-2,9.6-5.6,13.2c-3.2,3.2-8,5.6-13.2,5.6h-256c-5.2,0-9.6-2-13.2-5.6l-0.4-0.4c-3.2-3.2-5.2-7.6-5.2-12.8V85.2
			l59.2,48l37.2,30.4l-58.4,55.6c-4,4-4.4,10.4-0.4,14.4s10.4,4.4,14.4,0.4l60.4-57.6l14.8,12c6,4.8,12.8,7.2,19.6,6.8
			c7.2,0,14-2.4,19.6-7.2l0.4-0.4L202,176l60.8,58c4,4,10.4,3.6,14.4-0.4s3.6-10.4-0.4-14.4l-58.8-56l37.2-30l59.2-48V249.6z"/>
	</g>
</g>
<g>
</g>
<g>
</g>
<g>
</g>
<g>
</g>
<g>
</g>
<g>
</g>
<g>
</g>
<g>
</g>
<g>
</g>
<g>
</g>
<g>
</g>
<g>
</g>
<g>
</g>
<g>
</g>
<g>
</g>
</svg>
