<svg enable-background="new 0 0 32 32" height="512" viewBox="0 0 32 32" width="512" xmlns="http://www.w3.org/2000/svg"><path d="m26 32h-20c-3.314 0-6-2.686-6-6v-20c0-3.314 2.686-6 6-6h20c3.314 0 6 2.686 6 6v20c0 3.314-2.686 6-6 6z" fill="#e3f8fa"/><path d="m18.747 9.286-7.26 3.717-2.887-1.42 7.132-3.522c.16-.081.352-.081.52 0z" fill="#8ce1eb"/><path d="m23.392 11.583-7.388 3.66-2.767-1.363-.399-.203 7.268-3.717.4.203z" fill="#8ce1eb"/><g fill="#26c6da"><path d="m15.412 16.298-.008 7.702-7.077-3.693c-.199-.105-.327-.316-.327-.543v-7.126l2.999 1.477v2.597c0 .333.272.609.6.609s.6-.276.6-.609v-1.996l.4.195z"/><path d="m23.992 12.646-7.38 3.644-.008 7.702 7.396-3.862z"/></g></svg>